<svg width="130.000000" height="130.000000" viewBox="0 0 130 130" fill="none" xmlns="http://www.w3.org/2000/svg" xmlns:xlink="http://www.w3.org/1999/xlink">
	<desc>
			Created with Pixso.
	</desc>
	<defs/>
	<path id="Vector" d="M125.32 96.32C127.39 96.32 128.2 98.73 128.2 100.64C128.2 103.16 126.95 105 125.28 105C123.61 105 122.36 103.15 122.36 100.69C122.36 98.55 123.25 96.32 125.32 96.32L125.32 96.32ZM125.36 94.79C122.7 94.79 120.59 96.99 120.59 100.75C120.59 104.3 122.59 106.53 125.2 106.53C127.53 106.53 130 104.73 130 100.57C130 97.13 128.12 94.79 125.36 94.79ZM111.7 99.78C111.7 99.5 111.76 99.2 111.82 98.94C112.16 97.41 113.27 96.42 114.47 96.42C116.32 96.42 117.33 98.34 117.33 100.59C117.33 103.16 116.25 104.93 114.4 104.93C113.15 104.93 112.1 103.95 111.78 102.54C111.74 102.28 111.7 102.01 111.7 101.7L111.7 99.78ZM109.97 110.88L111.7 110.88L111.7 104.77L111.74 104.77C112.32 105.88 113.43 106.53 114.7 106.53C116.97 106.53 119.08 104.53 119.08 100.5C119.08 97.09 117.33 94.79 115 94.79C113.43 94.79 112.3 95.6 111.58 96.97L111.54 96.97L111.46 95.05L109.89 95.05C109.93 96.11 109.98 97.27 109.98 98.71L109.98 110.88L109.97 110.88ZM99.17 95.05L99.17 106.28L100.9 106.28L100.9 96.66L105.38 96.66L105.38 106.28L107.13 106.28L107.13 95.05L99.17 95.05ZM95.43 90.61C94.79 90.61 94.34 91.16 94.34 91.89C94.34 92.61 94.77 93.14 95.39 93.14C96.08 93.14 96.52 92.59 96.5 91.89C96.5 91.16 96.09 90.61 95.43 90.61ZM96.31 106.28L96.31 95.05L94.56 95.05L94.56 106.28L96.31 106.28ZM83.66 95.05L83.66 106.28L85.39 106.28L85.39 101.19L89.96 101.19L89.96 106.28L91.69 106.28L91.69 95.05L89.96 95.05L89.96 99.57L85.39 99.57L85.39 95.05L83.66 95.05ZM74.51 92.3L78.67 92.3L78.67 104.61L72.74 104.61C73.14 103.77 73.56 102.73 73.83 101.63C74.31 99.87 74.51 97.76 74.51 95.25L74.51 92.3L74.51 92.3ZM72.9 90.63L72.9 94.61C72.9 97.3 72.72 99.38 72.27 101.19C71.94 102.42 71.45 103.56 70.95 104.63L69.94 104.68L70.05 110.04L71.41 110.04L71.53 106.28L79.98 106.28L80.1 110.04L81.45 110.04L81.57 104.68L80.39 104.63L80.39 90.63L72.9 90.63L72.9 90.63ZM67.39 90.61C66.75 90.61 66.3 91.16 66.3 91.89C66.3 92.61 66.73 93.14 67.35 93.14C68.04 93.14 68.48 92.59 68.46 91.89C68.46 91.16 68.04 90.61 67.39 90.61ZM68.26 106.28L68.26 95.05L66.52 95.05L66.52 106.28L68.26 106.28ZM57.11 95.05L57.11 96.66L60.11 96.66L60.11 106.28L61.84 106.28L61.84 96.66L64.84 96.66L64.84 95.05L57.11 95.05ZM54.56 90.61C53.92 90.61 53.47 91.16 53.47 91.89C53.47 92.61 53.9 93.14 54.52 93.14C55.21 93.14 55.65 92.59 55.63 91.89C55.63 91.16 55.22 90.61 54.56 90.61ZM55.44 106.28L55.44 95.05L53.69 95.05L53.69 106.28L55.44 106.28ZM51.22 104.17C50.53 104.56 49.45 104.82 48.4 104.82C45.14 104.82 43.25 102.36 43.25 98.53C43.25 94.42 45.33 92.07 48.47 92.07C49.59 92.07 50.53 92.35 51.18 92.72L51.6 91.07C51.14 90.8 50.08 90.38 48.42 90.38C44.26 90.38 41.42 93.7 41.42 98.59C41.42 103.49 44.26 106.51 48.04 106.51C49.67 106.51 50.94 106.14 51.58 105.77L51.22 104.17L51.22 104.17ZM35.27 96.32C37.34 96.32 38.15 98.73 38.15 100.64C38.15 103.16 36.9 105 35.24 105C33.57 105 32.31 103.15 32.31 100.69C32.31 98.55 33.21 96.32 35.27 96.32ZM35.31 94.79C32.65 94.79 30.54 96.99 30.54 100.75C30.54 104.3 32.55 106.53 35.16 106.53C37.48 106.53 39.95 104.73 39.95 100.57C39.95 97.13 38.07 94.79 35.31 94.79ZM21.83 95.05L21.83 96.66L24.83 96.66L24.83 106.28L26.56 106.28L26.56 96.66L29.56 96.66L29.56 95.05L21.83 95.05ZM14.73 101.1L16 101.1C17.67 101.1 19.06 101.45 19.06 103.07C19.06 104.7 17.32 105.02 16.15 105.02C15.59 105.02 15.23 105 14.73 104.93L14.73 101.1L14.73 101.1ZM14.75 96.44C15.17 96.39 15.52 96.34 16.1 96.34C17.85 96.34 18.69 96.88 18.69 97.99C18.69 99.32 17.36 99.76 16.07 99.76L14.75 99.76L14.75 96.43L14.75 96.44ZM13.08 106.28C13.6 106.32 14.71 106.42 15.78 106.42C17.67 106.42 20.86 106.05 20.86 103.1C20.86 101.47 19.82 100.55 18.41 100.31L18.41 100.26C19.5 99.99 20.41 99.13 20.41 97.74C20.41 95.23 17.75 94.93 16.14 94.93C15.01 94.93 13.75 95.05 13.08 95.18L13.08 106.28L13.08 106.28ZM3.53 99.78L4.85 95.25C5.11 94.3 5.33 93.35 5.53 92.42L5.56 92.42C5.76 93.32 5.97 94.26 6.26 95.28L7.57 99.78L3.54 99.78L3.53 99.78ZM7.93 101.36L9.36 106.28L11.21 106.28L6.63 90.63L4.55 90.63L0 106.28L1.79 106.28L3.18 101.36L7.93 101.36L7.93 101.36ZM90.73 109.98L69.15 122.53C67.14 123.71 63.58 123.56 61.25 122.2L40.25 109.98L46.73 109.98L61.25 118.43C63.58 119.79 67.14 119.94 69.15 118.77L84.25 109.98L90.72 109.98L90.73 109.98ZM102.19 109.98L69.15 129.21C67.14 130.38 63.58 130.23 61.25 128.87L28.79 109.98L35.26 109.98L61.25 125.1C63.58 126.46 67.14 126.61 69.15 125.44L95.72 109.98L102.19 109.98L102.19 109.98ZM19.61 68.94C20.57 69.2 20.23 68.75 20.32 69.78C20.46 71.24 20.06 70.74 20 70.85C15.34 72.05 16.22 68.04 19.61 68.94ZM115.04 80.63C115.67 80.35 115.95 80.43 115.91 79.28C115.87 78.2 115.64 78.28 114.98 77.97C115.29 78.98 115.32 79.6 115.04 80.63L115.04 80.63ZM119.93 80.62C120.32 80.38 120.83 80.64 120.84 79.25C120.85 78.18 120.54 78.21 119.91 78.04C120.27 79.01 120.25 79.45 119.94 80.62L119.93 80.62ZM67.25 76.64C67.69 77.8 67.69 78.57 67.26 79.82C67.97 79.5 68.24 79.39 68.3 78.29C68.39 76.79 68.07 76.8 67.25 76.64ZM73.17 76.52C73.65 77.79 73.75 78.63 73.17 79.74C74.55 79.61 74.82 77.44 73.17 76.52ZM109.87 78.01C110.21 79.03 110.27 79.51 109.93 80.56C110.6 80.37 110.31 80.79 110.66 80.1C111.19 79.04 110.8 78.31 109.87 78.01L109.87 78.01ZM35.18 79.31C35.26 79.28 36.29 79.55 36.09 77.33C36 76.22 35.78 76.09 35 75.81C35.46 77.49 35.05 78.92 35.18 79.31ZM17.06 66.89C19.4 67.02 22.48 67.33 24.47 66.45C26.73 65.46 28.05 65.36 30.27 64.64C26.77 64.12 22.88 64.24 19.59 65.45C18.27 65.93 17.83 66 17.06 66.89ZM98.18 68.9C95.62 68.78 95.61 68.65 95.2 69.46C95.8 69.95 94.23 69.84 96.54 70.11L109.17 70.43C111.37 70.49 122.26 71.22 123.26 70.44C122.97 69.14 122.22 69.55 120.49 69.52L98.18 68.9ZM73.45 61.29C72.7 61.24 71.94 61.19 71.2 61.14C69.58 61.01 69.89 60.74 69.37 61.61C69.37 61.61 68.91 63.1 72.63 62.17C73.51 62.67 78.06 62.66 79.77 62.81C79.91 62.82 80.61 62.91 80.75 62.89C81.69 62.69 81.14 62.97 81.59 62.26C80.86 61.44 80.3 61.48 78.15 61.61L73.45 61.29L73.45 61.29ZM102.71 80.82L103.83 83.59L101.68 83.6L102.71 80.81L102.71 80.82ZM73.49 29.56C73.64 31.21 74.22 30.91 75.98 31.43C77.18 31.79 78.31 32.14 79.46 32.49C81.59 33.12 84.35 34.2 86.51 34.53C86.45 32.37 85.68 32.95 80.59 31.35L74.16 29.43C74.09 29.43 73.99 29.45 73.93 29.45L73.5 29.56L73.49 29.56ZM9.33 55.19C10.12 53.55 9.36 51.39 9.86 49.39C10.5 46.77 11.26 48.37 11.23 44.62C11.1 30.22 9.18 35.07 28.35 23.61C39.03 17.23 49.61 11.29 60.32 4.96C64.6 2.43 64.54 1.73 69.07 4.4L117.06 32.36C120.03 34.33 119.11 38.72 119.1 43.02L117.03 42.56C116.87 38.84 117.09 35.4 114.87 33.6L93.39 21.01C88.69 18.28 83.92 15.61 79.23 12.77C76.85 11.33 74.46 9.95 72.08 8.57C69.85 7.28 67.11 5.01 63.69 5.76C61.37 6.26 26.31 27.32 20.86 30.42C12.96 34.9 13.15 34.55 13.33 45.47C13.38 45.43 15.34 42.68 15.39 42.57C16.07 41.24 15.42 39.09 15.82 37.46C16.39 35.18 19.84 33.79 21.75 32.64L62.73 8.71C65.64 7.01 68.1 9.05 70.33 10.33L111.13 34.11C114.91 36.3 114.67 36.54 114.65 41.76L90.49 34.4C90.51 36.43 89.92 35.69 93.83 36.91L107.45 41.1C113.7 42.98 119.64 44.83 125.84 46.75L127.87 47.22C127.87 45.75 127.96 45.84 126.47 45.4C125.66 45.15 124.95 44.98 124.15 44.76C122.96 44.37 122.61 44.51 121.93 43.62C121.93 30.35 122.34 32.04 112.56 26.45L78.93 6.85C69.89 1.72 66.94 -2.14 60.91 1.31L18.88 25.81C7.76 32.15 8.39 30.92 8.39 41.98C8.39 45.74 8.04 51.78 8.49 55.23L9.33 55.19ZM121.43 80.97C122.76 80.72 124.04 80.62 125.23 81L125.44 78.64C122.68 78.47 123.18 78.95 122.8 78.1C122.88 75.28 122.53 75.23 122.02 72.89L125.25 72.94L125.39 71.89C122.25 71.2 66.93 70.71 60.47 70.35C60.07 63.92 60.42 46.76 60.39 38.04L60.7 35.97C62.27 36.43 61.61 39.95 61.61 43.62L61.61 69.15C63.78 69.17 66.86 69.64 67.95 68.8C67.53 67.86 68.11 68.45 67.15 68.1C65.93 67.66 63.75 68.58 63.02 67.49C63.18 67.04 62.76 66.73 65.21 66.75C66.11 66.76 67.09 66.75 67.94 66.79L67.92 65.77C66.89 65.58 66.23 65.67 65.21 65.68C62.41 65.71 63.24 65.54 63.02 64.88L63.96 64.51C65.18 64.31 66.99 64.8 67.94 64.22C67.78 62.43 66.36 63.67 64.23 63.39C62.37 63.15 63.35 63.63 63.01 62.59L63.45 62.36C66.15 61.57 67.81 63.32 67.93 61.28C66.17 60.4 63.59 62.03 63.01 60.3L64.25 59.89C64.67 59.84 65.45 59.9 65.9 59.91C67.54 59.95 67.85 60.31 67.93 58.99C66.2 58.11 63.59 59.73 63.01 58.01L63.69 57.69C65.12 57.35 66.92 57.95 67.94 57.35C67.79 55.55 66.38 56.79 64.23 56.51C62.38 56.28 63.36 56.76 63.01 55.72C64.19 54.77 67.18 55.82 67.95 55.06L67.87 54.25C66.87 54.19 66.14 54.21 65.2 54.22C65.12 54.22 63.94 54.19 63.93 54.19C62.97 53.95 63.31 54.34 63.01 53.43L66.85 53.03C68.32 52.78 67.36 53.33 67.95 52.45C67.48 51.79 67.97 52.14 67.13 51.94C66.81 51.86 65.91 51.88 65.56 51.89C62.91 51.98 63.25 51.86 63.02 51.14L63.45 50.91C63.51 50.89 63.62 50.84 63.69 50.82L65.56 50.73C65.75 50.74 66.72 50.76 66.85 50.74C68.33 50.49 67.37 51.03 67.95 50.16C67.15 49.03 65.14 49.89 63.94 49.6C62.98 49.37 63.32 49.75 63.01 48.85L63.45 48.62C63.51 48.6 63.62 48.55 63.69 48.53L66.85 48.44C68.33 48.2 67.36 48.75 67.96 47.87C67.15 46.74 65.15 47.6 63.94 47.31C62.52 46.96 63.4 47.7 63.02 46.56C63.9 45.81 66.02 46.28 66.85 46.15C68.31 45.91 67.36 46.45 67.95 45.58C67.54 44.96 67.49 44.97 65.56 45.01L63.69 44.92C62.83 44.69 63.55 45.04 63.01 44.6C63.5 43.18 65.15 44.13 66.85 43.86C68.31 43.63 67.35 44.16 67.95 43.29C67.52 42.66 67.44 42.68 65.56 42.72C65.23 42.73 64.55 42.77 64.25 42.73L63.01 42.31C63.16 41.87 62.77 41.48 65.21 41.55C68.32 41.63 67.53 41.61 67.95 41C67.51 40.37 67.44 40.38 65.56 40.43C64.37 40.46 63.69 40.58 63.02 40.02C63.49 38.61 65.13 39.55 66.85 39.27C68.26 39.04 67.34 39.57 67.94 38.71C67.02 37.38 64.35 38.84 63.01 37.73C63.27 36.96 62.25 36.92 65.89 36.99C68.69 37.04 67.87 36.15 68.78 36.19L124.04 51.3C124.4 52.22 124.33 51.78 124.23 52.97L101.74 47.07C101.25 47.85 101.46 47.51 101.43 48.34C102.84 48.25 121.64 53.28 124.3 54.11L124.3 64.32L90.43 62.35C89.03 62.2 85.08 61.64 84.11 62.26C84.5 63.54 85.52 63.09 88.82 63.26L116.54 64.7C119.68 64.87 124.94 65.45 127.87 65.18L129.34 65.16L127.6 64.51L125.55 64.53L125.49 50.6C124.58 50.14 123.07 49.89 122.09 49.43C114.04 47.74 98.72 43.02 89.52 40.62C82.93 38.9 70.92 34.75 64.58 34.76C57.55 34.77 59.43 34.32 57.34 34.19C55.5 34.08 56.69 33.79 55.98 35.09C54.87 33.36 53.67 34 51.44 34.23C43.45 35.08 33.77 35.08 27.23 38.5C24.98 39.68 22.1 41.79 21.12 44.04C23.62 43.85 22.05 42.78 27.09 39.68C28.95 38.53 31.88 37.5 34.42 36.94C37.09 36.35 49.81 35.06 52.48 35.32C50.05 35.03 42.14 38.96 40.93 43.29C42.46 44.01 52.59 45.15 55.02 45.37L56.03 38.81L56.15 70.41L50.74 70.45L50.75 45.9L48.44 45.61C48.21 49.68 48.38 54.22 48.38 58.33L48.4 69.46C48.15 70.53 48.63 70.08 47.63 70.45C47.65 65.1 47.63 59.76 47.63 54.41C47.64 52.23 48.11 48.96 46.3 48.05C45.44 47.62 44.04 47.63 42.93 47.5C41.57 47.35 40.51 46.92 40.24 47.99C48.5 48.82 46.94 46.25 46.92 64.55L46.92 70.45C45.88 70.45 38.68 70.19 37.8 70.76C38.59 72.19 39.75 71.68 41.65 71.67L51.66 71.67C55.61 71.66 55.74 71.14 56.11 72.4C54.86 73.01 39.17 72.69 36.48 72.6C36.15 72.22 33.7 68.2 31.54 71.98C30.3 74.16 30.56 76.86 30.31 79.52L27.91 79.47C28.48 78.03 29.11 74.14 27.97 73.17C26.69 72.08 6.1 72.68 3.5 72.59C3.18 72.61 2.91 72.57 2.58 72.72C1.84 73.05 2.39 72.66 1.94 73.21C1.3 73.46 1.72 73.1 1.3 73.73C1.02 74.16 1.16 73.91 1.06 74.47L1.63 77.7C2.34 80.44 3.36 80.75 6.43 80.75C7.28 80.98 7.22 81.56 8.02 83.54L0.66 83.59L0.65 85.97L127.43 85.97L127.62 83.59L120.72 83.61C120.97 82.81 121.34 81.94 121.43 80.97L121.43 80.97ZM76.27 77.31C76.27 75.66 75.98 73.25 76.54 71.99L78.27 71.96L78.29 80.68L83.57 80.75C84.13 78.88 82.81 73.05 84.29 72.11C85.16 72.58 84.82 72.12 84.88 73.67L84.85 80.74L88.37 80.74L89.51 83.54L74.08 83.51C74.9 81.74 74.36 81.93 75.57 80.83C76.19 80.26 76.29 81.95 76.27 77.31ZM37.45 80.75L51.08 80.75C51.28 81.84 51.66 82.65 51.97 83.56L35.88 83.55C36.74 81.18 36.5 81.26 37.45 80.75ZM17.72 80.91L26.24 80.72L27.17 83.61L16.68 83.6L17.72 80.91L17.72 80.91ZM119.5 76.01C122.18 77.9 121.18 82.7 119.2 82.62C117.26 82.54 116.47 76.41 119.5 76.01ZM114.01 76C115.39 76.19 116.02 77.36 116.24 78.68C116.46 79.98 115.59 82.12 114.83 82.49C112.47 83.6 111.64 77.77 114.01 76L114.01 76ZM109.17 82.7C106.37 81.51 107.39 75.47 109.49 76C110.26 76.56 111.17 77.81 111.19 79.27C111.22 80.55 110.69 82.19 109.17 82.7ZM71.64 82.17C69.29 79.3 70.39 72.81 72.97 74.33C73.91 74.88 74.95 77.29 74.69 78.92C74.39 80.74 73.57 82.26 71.64 82.17ZM64.4 79.27C63.76 74.2 67.39 71.83 68.68 77.1C69.56 80.72 65.18 85.38 64.4 79.27ZM36.49 78.94C34.56 85.03 30.85 81.05 31.99 75.72C33.25 69.79 37.64 75.33 36.49 78.94ZM25.52 78.66L22.66 78.68C22.62 77.47 22.37 77.34 23.28 77.08C23.95 76.89 25.11 77.12 25.5 77.26L25.52 78.66ZM5.46 77.07L6.11 77.07L7.11 77.18L7.07 78.66L4.21 78.7C3.91 77.14 3.87 77.07 5.46 77.07ZM61.03 78.58L61.68 77.38C61.76 77.45 62.14 77.84 62.22 77.86C62.68 77.97 62.12 78.2 63.29 77.71C62.72 79.21 63.57 78.06 62.36 79.19L64.22 78.03C63.11 80.41 61.7 79.91 59.88 78.83L60.2 76.11C62.26 75.91 61.44 75.43 62.97 75.4C63.86 76.39 63.93 76.47 64.26 77.96L63.19 77.11C61.96 75.86 60.66 76.82 61.03 78.58L61.03 78.58ZM27.13 76.49C25.73 76.76 3.74 76.94 2.68 76.26C3.11 74.9 4.55 75.46 8.05 75.46L26.14 75.41C27.66 75.68 26.85 75.28 27.13 76.49ZM101.6 74.97C100.89 74.06 100.64 74.02 100.72 72.44L102.41 72.45L101.6 74.97ZM69.37 39.04C69.77 40.32 71.06 40.18 72.45 40.55L91.2 45.45C92.56 45.77 93.74 46.1 95.05 46.45C96.51 46.84 98.01 47.52 98.78 46.89C98.42 45.92 98.82 46.32 97.53 45.91L70.34 38.8C69.38 38.8 69.95 38.65 69.37 39.04L69.37 39.04ZM80.73 68.41L69.24 68.11L69.53 69.33C73.36 69.37 77.23 69.52 81.04 69.64C82.74 69.69 91.2 70.42 92.59 69.46C92.14 68.62 92.52 68.93 91.44 68.7L80.73 68.41L80.73 68.41ZM17.64 48.5L36.88 47.99C40.14 47.94 38.63 47.57 40.18 47.03C41.39 46.6 45.87 47.46 47.47 47.58L47.43 45.58C44.31 44.1 35.4 44.34 31.64 44.51C28.82 44.63 26.05 44.76 23.23 44.87C19.47 45.02 18.31 44.8 17.63 48.5L17.64 48.5ZM41.21 50.26C41.48 54.88 41.65 54.89 39.04 54.7L38.59 52.4C38.29 53.34 38.03 54.03 37.81 54.83C37.45 56.16 37.33 56.21 38.42 56.72L39.03 55.09C40.7 55 40.79 54.9 41.42 56.01L41.65 56.53C45.8 56.3 46.28 57.21 46.27 53.1C46.26 50.79 46.72 49.84 44.56 49.43C43.02 49.14 41.26 48.86 39.73 49.24L41.21 50.25L41.21 50.26ZM16.99 56.45C18.45 57.22 33.1 57.12 35.42 56.58C36.29 55.47 38.09 50.88 37.67 48.95C35.02 48.44 27.11 49.06 23.88 49.15C21.22 49.22 19.21 48.61 18.35 50.79C17.83 52.12 16.63 55.28 16.99 56.46L16.99 56.45ZM16.46 54.39C17.21 47.61 17.21 51.87 17.61 49.64C16.24 49.59 15.4 49.78 14.45 50.49C14.33 51.82 14.43 54.7 14.44 55.75C14.45 56.93 14.52 56.64 14.83 56.7C16.6 56.63 15.74 56.29 16.46 54.39ZM21.68 60.96C22.29 61.41 21.37 61.49 23.11 61.19C23.48 61.12 24.21 60.89 24.68 60.78C26.11 60.44 32.64 59.15 33.5 58.34C32.5 57.32 32.24 57.78 30.57 58.25C28.09 58.95 22.84 59.87 21.68 60.96ZM16.17 62.26C16.54 62.58 15.36 63 18.69 62.26C21.88 61.54 20.5 61.97 21 61.14C19.89 60.85 17.18 61.59 16.17 62.26ZM14.84 64.88L9.99 64.92L5.74 64.81L5.31 64.11L13.89 64.04C15.19 64.43 14.25 63.73 14.84 64.88L14.84 64.88ZM5.43 66.51C5.81 65.39 5.12 65.69 7.39 65.68L13.87 65.69C14.9 65.92 14.27 65.66 14.84 66.29L7.4 66.54L5.43 66.51L5.43 66.51ZM7.4 67.16L14.72 67.25C14.03 68.43 12.34 67.93 10.63 68.02C8.93 68.11 7.09 68.17 5.4 68.01C5.38 67.94 5.35 67.61 5.21 67.24L7.4 67.16ZM5.14 68.82L14.57 68.97C14.21 69.47 14.95 69.64 12.91 69.65L5.28 69.75C5.23 69.58 5.17 69.41 5.14 68.82L5.14 68.82ZM5.23 70.52C7.95 70.42 12.32 71 14.74 70.35C15.49 69.12 15.89 64.57 15.7 62.66L14.69 62.42C13.93 61.66 8.14 62.1 7 62.05L9.46 60.8C10.32 60.45 10.86 60.25 11.75 59.84C13.68 58.92 14.93 58.85 16.29 57.65C13.17 57.64 12.95 58.38 10.54 59.5C8.08 60.64 6.61 60.76 6.16 62.38L5.14 62.56C4.75 64.35 3.73 69.41 5.23 70.52L5.23 70.52ZM21.42 69.26C23.08 68.71 23.64 69.88 22.82 70.68C21.87 71.61 21.1 70.45 21.42 69.26ZM2.88 68.18L1.15 68.36C0.03 72.15 2.07 71.64 5.14 71.67C7.83 71.7 10.52 71.7 13.22 71.69C18.36 71.69 23.96 71.9 29.05 71.64C30.53 69.47 29.94 68.64 32.72 67.78L31.57 67.38C30.38 68.42 29.93 67.88 28.91 69.32C27.74 70.97 28.12 70.45 25.49 70.45C23.3 70.42 24.77 70.66 23.94 69.04C23.09 67.39 16.53 68.16 16.45 68.18C15.34 68.76 16.21 69.51 15.02 70.94C14.18 71.44 5.98 71.1 4.06 70.95C3.26 70.89 3.11 71.15 2.49 70.76C2.04 70.49 1.65 70.21 2.25 69.5C3.07 68.54 3.42 69.41 3.64 68.87C3.68 68.77 3.81 68.85 3.89 68.81C3.56 68.1 4.62 68.26 2.88 68.18L2.88 68.18Z" fill="#FFFFFF" fill-opacity="1.000000" fill-rule="evenodd"/>
</svg>
